<svg width="160" height="48" viewBox="0 0 160 48" fill="none" xmlns="http://www.w3.org/2000/svg">
<rect x="0.5" y="0.5" width="159" height="47" rx="5.5" stroke="white"/>
<g clip-path="url(#clip0_14_228)">
<path d="M60.6836 17.3535V11.666H62.2891C62.7839 11.666 63.2214 11.7754 63.6016 11.9941C63.9818 12.2129 64.2747 12.5241 64.4805 12.9277C64.6888 13.3314 64.7943 13.7949 64.7969 14.3184V14.6816C64.7969 15.2181 64.6927 15.6882 64.4844 16.0918C64.2786 16.4954 63.9831 16.8053 63.5977 17.0215C63.2148 17.2376 62.7682 17.3483 62.2578 17.3535H60.6836ZM61.4336 12.2832V16.7402H62.2227C62.8008 16.7402 63.25 16.5605 63.5703 16.2012C63.8932 15.8418 64.0547 15.3301 64.0547 14.666V14.334C64.0547 13.6882 63.9023 13.1868 63.5977 12.8301C63.2956 12.4707 62.8659 12.2884 62.3086 12.2832H61.4336ZM65.6289 15.2012C65.6289 14.7871 65.7096 14.4147 65.8711 14.084C66.0352 13.7533 66.2617 13.498 66.5508 13.3184C66.8424 13.1387 67.1745 13.0488 67.5469 13.0488C68.1224 13.0488 68.5872 13.248 68.9414 13.6465C69.2982 14.0449 69.4766 14.5749 69.4766 15.2363V15.2871C69.4766 15.6986 69.3971 16.0684 69.2383 16.3965C69.082 16.722 68.8568 16.9759 68.5625 17.1582C68.2708 17.3405 67.9349 17.4316 67.5547 17.4316C66.9818 17.4316 66.5169 17.2324 66.1602 16.834C65.806 16.4355 65.6289 15.9082 65.6289 15.252V15.2012ZM66.3555 15.2871C66.3555 15.7559 66.4635 16.1322 66.6797 16.416C66.8984 16.6999 67.1901 16.8418 67.5547 16.8418C67.9219 16.8418 68.2135 16.6986 68.4297 16.4121C68.6458 16.123 68.7539 15.7194 68.7539 15.2012C68.7539 14.7376 68.6432 14.3626 68.4219 14.0762C68.2031 13.7871 67.9115 13.6426 67.5469 13.6426C67.1901 13.6426 66.9023 13.7845 66.6836 14.0684C66.4648 14.3522 66.3555 14.7585 66.3555 15.2871ZM74.125 16.3574L74.9375 13.127H75.6602L74.4297 17.3535H73.8438L72.8164 14.1504L71.8164 17.3535H71.2305L70.0039 13.127H70.7227L71.5547 16.291L72.5391 13.127H73.1211L74.125 16.3574ZM77.082 13.127L77.1055 13.6582C77.4284 13.252 77.8503 13.0488 78.3711 13.0488C79.2643 13.0488 79.7148 13.5527 79.7227 14.5605V17.3535H79V14.5566C78.9974 14.252 78.9271 14.0267 78.7891 13.8809C78.6536 13.735 78.4414 13.6621 78.1523 13.6621C77.918 13.6621 77.7122 13.7246 77.5352 13.8496C77.3581 13.9746 77.2201 14.1387 77.1211 14.3418V17.3535H76.3984V13.127H77.082ZM81.5977 17.3535H80.875V11.3535H81.5977V17.3535ZM82.5664 15.2012C82.5664 14.7871 82.6471 14.4147 82.8086 14.084C82.9727 13.7533 83.1992 13.498 83.4883 13.3184C83.7799 13.1387 84.112 13.0488 84.4844 13.0488C85.0599 13.0488 85.5247 13.248 85.8789 13.6465C86.2357 14.0449 86.4141 14.5749 86.4141 15.2363V15.2871C86.4141 15.6986 86.3346 16.0684 86.1758 16.3965C86.0195 16.722 85.7943 16.9759 85.5 17.1582C85.2083 17.3405 84.8724 17.4316 84.4922 17.4316C83.9193 17.4316 83.4544 17.2324 83.0977 16.834C82.7435 16.4355 82.5664 15.9082 82.5664 15.252V15.2012ZM83.293 15.2871C83.293 15.7559 83.401 16.1322 83.6172 16.416C83.8359 16.6999 84.1276 16.8418 84.4922 16.8418C84.8594 16.8418 85.151 16.6986 85.3672 16.4121C85.5833 16.123 85.6914 15.7194 85.6914 15.2012C85.6914 14.7376 85.5807 14.3626 85.3594 14.0762C85.1406 13.7871 84.849 13.6426 84.4844 13.6426C84.1276 13.6426 83.8398 13.7845 83.6211 14.0684C83.4023 14.3522 83.293 14.7585 83.293 15.2871ZM89.9297 17.3535C89.888 17.2702 89.8542 17.1217 89.8281 16.9082C89.4922 17.2572 89.0911 17.4316 88.625 17.4316C88.2083 17.4316 87.8659 17.3145 87.5977 17.0801C87.332 16.8431 87.1992 16.5436 87.1992 16.1816C87.1992 15.7415 87.3659 15.4004 87.6992 15.1582C88.0352 14.9134 88.5065 14.791 89.1133 14.791H89.8164V14.459C89.8164 14.2064 89.7409 14.0059 89.5898 13.8574C89.4388 13.7064 89.2161 13.6309 88.9219 13.6309C88.6641 13.6309 88.4479 13.696 88.2734 13.8262C88.099 13.9564 88.0117 14.1139 88.0117 14.2988H87.2852C87.2852 14.0879 87.3594 13.8848 87.5078 13.6895C87.6589 13.4915 87.862 13.3353 88.1172 13.2207C88.375 13.1061 88.6576 13.0488 88.9648 13.0488C89.4518 13.0488 89.8333 13.1712 90.1094 13.416C90.3854 13.6582 90.5286 13.9928 90.5391 14.4199V16.3652C90.5391 16.7533 90.5885 17.0618 90.6875 17.291V17.3535H89.9297ZM88.7305 16.8027C88.957 16.8027 89.1719 16.7441 89.375 16.627C89.5781 16.5098 89.7253 16.3574 89.8164 16.1699V15.3027H89.25C88.3646 15.3027 87.9219 15.5618 87.9219 16.0801C87.9219 16.3066 87.9974 16.4837 88.1484 16.6113C88.2995 16.7389 88.4935 16.8027 88.7305 16.8027ZM91.4961 15.2051C91.4961 14.5566 91.6497 14.0358 91.957 13.6426C92.2643 13.2467 92.6667 13.0488 93.1641 13.0488C93.6589 13.0488 94.0508 13.2181 94.3398 13.5566V11.3535H95.0625V17.3535H94.3984L94.3633 16.9004C94.0742 17.2546 93.6719 17.4316 93.1562 17.4316C92.6667 17.4316 92.2669 17.2311 91.957 16.8301C91.6497 16.429 91.4961 15.9056 91.4961 15.2598V15.2051ZM92.2188 15.2871C92.2188 15.7663 92.3177 16.1413 92.5156 16.4121C92.7135 16.6829 92.987 16.8184 93.3359 16.8184C93.7943 16.8184 94.1289 16.6126 94.3398 16.2012V14.2598C94.1237 13.8613 93.7917 13.6621 93.3438 13.6621C92.9896 13.6621 92.7135 13.7988 92.5156 14.0723C92.3177 14.3457 92.2188 14.7507 92.2188 15.2871ZM99.5664 16.373L100.613 13.127H101.352L99.8359 17.3535H99.2852L97.7539 13.127H98.4922L99.5664 16.373ZM102.832 17.3535H102.109V13.127H102.832V17.3535ZM102.051 12.0059C102.051 11.8887 102.086 11.7897 102.156 11.709C102.229 11.6283 102.336 11.5879 102.477 11.5879C102.617 11.5879 102.724 11.6283 102.797 11.709C102.87 11.7897 102.906 11.8887 102.906 12.0059C102.906 12.123 102.87 12.2207 102.797 12.2988C102.724 12.377 102.617 12.416 102.477 12.416C102.336 12.416 102.229 12.377 102.156 12.2988C102.086 12.2207 102.051 12.123 102.051 12.0059ZM106.602 17.3535C106.56 17.2702 106.526 17.1217 106.5 16.9082C106.164 17.2572 105.763 17.4316 105.297 17.4316C104.88 17.4316 104.538 17.3145 104.27 17.0801C104.004 16.8431 103.871 16.5436 103.871 16.1816C103.871 15.7415 104.038 15.4004 104.371 15.1582C104.707 14.9134 105.178 14.791 105.785 14.791H106.488V14.459C106.488 14.2064 106.413 14.0059 106.262 13.8574C106.111 13.7064 105.888 13.6309 105.594 13.6309C105.336 13.6309 105.12 13.696 104.945 13.8262C104.771 13.9564 104.684 14.1139 104.684 14.2988H103.957C103.957 14.0879 104.031 13.8848 104.18 13.6895C104.331 13.4915 104.534 13.3353 104.789 13.2207C105.047 13.1061 105.329 13.0488 105.637 13.0488C106.124 13.0488 106.505 13.1712 106.781 13.416C107.057 13.6582 107.201 13.9928 107.211 14.4199V16.3652C107.211 16.7533 107.26 17.0618 107.359 17.291V17.3535H106.602ZM105.402 16.8027C105.629 16.8027 105.844 16.7441 106.047 16.627C106.25 16.5098 106.397 16.3574 106.488 16.1699V15.3027H105.922C105.036 15.3027 104.594 15.5618 104.594 16.0801C104.594 16.3066 104.669 16.4837 104.82 16.6113C104.971 16.7389 105.165 16.8027 105.402 16.8027Z" fill="white"/>
<path fill-rule="evenodd" clip-rule="evenodd" d="M97.9898 32.3129C96.4238 32.3129 95.2778 31.5509 95.1458 30.3904L93.3234 30.3903C93.4385 32.5071 95.2197 33.8461 97.8579 33.8461C100.678 33.8461 102.45 32.4748 102.45 30.2854C102.45 28.5736 101.436 27.609 98.9955 27.0412L97.6848 26.7246C96.1515 26.3519 95.5247 25.865 95.5247 25.0376C95.5247 23.9995 96.5061 23.2862 97.9402 23.2862C99.3744 23.2862 100.356 23.9912 100.463 25.1591H102.26C102.202 23.1399 100.479 21.7529 97.9655 21.7529C95.4256 21.7529 93.6369 23.1399 93.6369 25.1591C93.6369 26.7899 94.651 27.795 96.8354 28.314L98.3771 28.6794C99.9188 29.0522 100.57 29.5961 100.57 30.5044C100.57 31.5509 99.4904 32.3129 97.9898 32.3129ZM66.9737 30.4879H62.4392L61.3503 33.6511H59.4297L63.7246 21.9481H65.7201L70.0151 33.6511H68.0617L66.9737 30.4879ZM62.9102 29.0281H66.5045L64.7326 23.8944H64.683L62.9102 29.0281ZM75.6712 33.7404C77.8481 33.7404 79.2907 32.0368 79.2907 29.3853C79.2907 26.7412 77.8397 25.0294 75.6384 25.0293C74.5057 24.9934 73.4447 25.573 72.8768 26.5378H72.8441V25.1186H71.1208V36.4738H72.9011V32.2476H72.9423C73.486 33.2184 74.5459 33.7983 75.6712 33.7404ZM77.4607 29.3854C77.4607 27.6579 76.5533 26.5222 75.1687 26.5222C73.8085 26.5222 72.8935 27.6819 72.8935 29.3854C72.8935 31.1046 73.8085 32.2559 75.1687 32.2559C76.5533 32.2559 77.4607 31.1285 77.4607 29.3854ZM85.2184 33.7403C87.3953 33.7403 88.8379 32.0368 88.8379 29.3853C88.8379 26.7411 87.3869 25.0293 85.1856 25.0293C84.0529 24.9934 82.9918 25.5729 82.4239 26.5377H82.3912V25.1186H80.668V36.4737H82.4483V32.2475H82.4895C83.0332 33.2184 84.0931 33.7982 85.2184 33.7403ZM87.0086 29.3855C87.0086 27.6581 86.1012 26.5224 84.7166 26.5224C83.3563 26.5224 82.4414 27.682 82.4414 29.3855C82.4414 31.1047 83.3563 32.2561 84.7166 32.2561C86.1012 32.2561 87.0086 31.1287 87.0086 29.3855ZM106.292 23.0995V25.1187H107.942V26.5056H106.292V31.2095C106.292 31.9402 106.623 32.2808 107.348 32.2808C107.544 32.2774 107.739 32.2639 107.933 32.2402V33.6189C107.607 33.6788 107.276 33.706 106.945 33.6999C105.189 33.6999 104.504 33.0511 104.504 31.3963V26.5056H103.243V25.1187H104.504V23.0995H106.292ZM113.012 25.0136C110.506 25.0136 108.898 26.7006 108.898 29.3852C108.898 32.0772 110.49 33.7568 113.012 33.7568C115.535 33.7568 117.126 32.0772 117.126 29.3852C117.126 26.7005 115.527 25.0136 113.012 25.0136ZM115.311 29.3854C115.311 27.5438 114.453 26.4569 113.01 26.4569C111.568 26.4569 110.711 27.5521 110.711 29.3854C110.711 31.2344 111.568 32.313 113.01 32.313C114.453 32.313 115.311 31.2344 115.311 29.3854H115.311ZM120.292 25.1185H118.594L118.594 33.651H120.374V28.59C120.315 28.078 120.486 27.5661 120.843 27.1887C121.199 26.8113 121.706 26.6061 122.229 26.627C122.5 26.6192 122.77 26.6549 123.029 26.7328V25.0946C122.829 25.0505 122.624 25.0285 122.419 25.0292C121.44 24.9925 120.57 25.6359 120.333 26.5708H120.292V25.1185ZM131.238 31.1449C130.998 32.6938 129.465 33.7568 127.503 33.7568C124.98 33.7568 123.414 32.0937 123.414 29.4257C123.414 26.7493 124.989 25.0136 127.428 25.0136C129.828 25.0136 131.337 26.6352 131.337 29.2223V29.8223H125.211V29.9282C125.154 30.5634 125.377 31.1922 125.823 31.6546C126.27 32.117 126.897 32.3685 127.544 32.345C128.408 32.4246 129.223 31.9366 129.547 31.1449L131.238 31.1449ZM129.554 28.5984H125.218C125.217 28.0223 125.449 27.4695 125.864 27.0629C126.279 26.6562 126.841 26.4294 127.427 26.4328C128.008 26.4206 128.568 26.6473 128.972 27.0583C129.375 27.4694 129.587 28.0276 129.554 28.5984Z" fill="white"/>
<path fill-rule="evenodd" clip-rule="evenodd" d="M44.1694 11.5117C42.9124 11.5643 41.3892 12.3465 40.4877 13.3983C39.6772 14.3322 38.9699 15.8229 39.1606 17.2521C40.5641 17.3616 41.9942 16.5419 42.8678 15.4896C43.7397 14.4355 44.33 12.9726 44.1694 11.5117ZM43.8141 36.3853C45.5173 36.3537 46.5961 34.8447 47.639 33.3264C48.7817 31.6632 49.2864 30.0507 49.3616 29.8102C49.3658 29.7969 49.3687 29.7877 49.3702 29.7831C49.3694 29.7827 49.3673 29.7819 49.3639 29.7805C49.2001 29.7141 46.0475 28.4373 46.0162 24.7465C45.9854 21.6986 48.4253 20.1824 48.694 20.0155C48.7033 20.0097 48.71 20.0056 48.7139 20.003C47.2453 17.8635 44.9585 17.5702 44.1437 17.5367C42.9535 17.4168 41.7988 17.87 40.8553 18.2403C40.2558 18.4756 39.7416 18.6774 39.3578 18.6774C38.9306 18.6774 38.4022 18.4685 37.8093 18.2341C37.0333 17.9273 36.1466 17.5768 35.2312 17.5935C33.1109 17.6252 31.1543 18.8228 30.0623 20.7157C27.8573 24.5272 29.4968 30.1751 31.645 33.2656C32.6965 34.7771 33.9468 36.4782 35.5911 36.417C36.3253 36.3876 36.8478 36.166 37.3882 35.9368C38.0127 35.6719 38.6611 35.3968 39.6876 35.3968C40.6653 35.3968 41.2837 35.6634 41.8785 35.9197C42.4473 36.1649 42.9946 36.4008 43.8141 36.3853Z" fill="white"/>
</g>
<defs>
<clipPath id="clip0_14_228">
<rect width="103.171" height="26.3415" fill="white" transform="translate(28.8594 10.1426)"/>
</clipPath>
</defs>
</svg>
