<svg width="91" height="36" viewBox="0 0 91 36" fill="none" xmlns="http://www.w3.org/2000/svg">
<path d="M43.7455 0C33.8215 0 25.7518 7.94213 25.7518 17.7073C25.7518 27.4726 33.8215 35.4147 43.7455 35.4147C53.6696 35.4147 61.7429 27.4726 61.7429 17.7073C61.7429 7.94213 53.6696 0 43.7455 0ZM43.7455 24.842C39.7468 24.842 36.4941 21.6411 36.4941 17.7073C36.4941 13.7736 39.7432 10.5739 43.7455 10.5739C47.7479 10.5739 50.9969 13.7736 50.9969 17.7073C50.9969 21.6411 47.7431 24.842 43.7455 24.842Z" fill="white"/>
<path d="M90.8676 34.5677L76.277 16.5728C76.1866 16.4619 76.1398 16.3219 76.1454 16.179C76.1509 16.0361 76.2084 15.9001 76.3071 15.7966L90.2515 1.08321C90.3334 0.99829 90.3881 0.890887 90.4087 0.774719C90.4292 0.658551 90.4147 0.538895 90.3669 0.431038C90.3191 0.323182 90.2402 0.232023 90.1404 0.16921C90.0405 0.106397 89.9242 0.0747821 89.8063 0.0784049H79.7294C79.4817 0.0785053 79.2366 0.12902 79.009 0.226873C78.7815 0.324726 78.5762 0.467871 78.4057 0.647591L70.3432 9.1914C70.2622 9.28503 70.1543 9.35139 70.0342 9.38143C69.9141 9.41146 69.7876 9.40371 69.6721 9.35923C69.5565 9.31475 69.4575 9.2357 69.3885 9.13288C69.3196 9.03005 69.284 8.90845 69.2867 8.78467V0.672862C69.2848 0.514542 69.2206 0.363351 69.1079 0.252072C68.9953 0.140792 68.8434 0.0783935 68.685 0.0784049H60.5022C60.3439 0.0783935 60.1919 0.140792 60.0793 0.252072C59.9667 0.363351 59.9024 0.514542 59.9005 0.672862V5.88338C62.5745 9.24465 64.0303 13.413 64.0303 17.7081C64.0303 22.0033 62.5745 26.1716 59.9005 29.5329V34.9384C59.9024 35.0967 59.9667 35.2479 60.0793 35.3591C60.1919 35.4704 60.3439 35.5328 60.5022 35.5328H68.685C68.8434 35.5328 68.9953 35.4704 69.1079 35.3591C69.2206 35.2479 69.2848 35.0967 69.2867 34.9384V22.8326L69.3541 22.7604L79.1807 34.8625C79.3521 35.0725 79.5682 35.2416 79.8132 35.3575C80.0582 35.4734 80.326 35.5333 80.597 35.5328H90.3983C90.5108 35.5342 90.6214 35.5035 90.7171 35.4444C90.8128 35.3853 90.8897 35.3002 90.9389 35.199C90.9881 35.0979 91.0075 34.9848 90.9949 34.873C90.9823 34.7613 90.9382 34.6554 90.8676 34.5677Z" fill="white"/>
<path d="M23.4654 17.7074C23.4656 13.4532 24.8937 9.32212 27.5207 5.97591C25.1517 3.21306 21.9368 1.30954 18.3752 0.560818C17.5765 0.394993 16.7695 0.271677 15.9577 0.191389C15.5209 0.191389 15.0828 0.197406 14.646 0.198609C14.5377 0.198609 14.4306 0.190186 14.3223 0.190186H2.39708H0.601677C0.443756 0.190165 0.292158 0.252233 0.179595 0.362996C0.0670312 0.473758 0.00252673 0.624335 0 0.782236L0 34.8239C0.00283888 34.9816 0.0674807 35.1319 0.180011 35.2424C0.292541 35.3529 0.443961 35.4148 0.601677 35.4148H14.3199C19.8156 35.4148 24.487 33.2054 27.5989 29.5436C24.922 26.1793 23.4648 22.0068 23.4654 17.7074ZM13.711 24.8421C12.3528 24.8434 11.0214 24.4645 9.8675 23.7482V11.6726C11.0204 10.957 12.3505 10.5781 13.7074 10.5787C17.7061 10.5787 20.9588 13.7785 20.9588 17.7122C20.9588 21.646 17.7098 24.8421 13.711 24.8421Z" fill="white"/>
</svg>
