<svg width="160" height="48" viewBox="0 0 160 48" fill="none" xmlns="http://www.w3.org/2000/svg">
<rect x="0.5" y="0.5" width="159" height="47" rx="5.5" stroke="white"/>
<g clip-path="url(#clip0_14_249)">
<path fill-rule="evenodd" clip-rule="evenodd" d="M66.3931 27.934V29.4439H69.9899C69.9335 30.155 69.6401 30.826 69.1573 31.348C68.4297 32.0947 67.4227 32.4968 66.3848 32.4552C64.1777 32.4552 62.3884 30.6526 62.3884 28.4289C62.3884 26.2053 64.1777 24.4027 66.3848 24.4027C67.3987 24.386 68.3778 24.7751 69.1074 25.4847L70.1647 24.4194C69.1697 23.4044 67.8091 22.8385 66.3931 22.8509C64.3774 22.7719 62.4804 23.8102 61.4492 25.5569C60.418 27.3036 60.418 29.4787 61.4492 31.2254C62.4804 32.9721 64.3774 34.0105 66.3931 33.9315C67.835 33.9971 69.2345 33.4313 70.2313 32.3797C71.1036 31.4142 71.5693 30.1449 71.5302 28.8399C71.5329 28.522 71.505 28.2046 71.4469 27.8921L66.3931 27.934ZM75.6278 26.8351C73.6746 26.8398 72.0946 28.4379 72.0977 30.4056C72.1007 32.3734 73.6857 33.9665 75.6389 33.9649C77.592 33.9634 79.1746 32.3678 79.1746 30.4C79.1883 29.4475 78.8176 28.5301 78.1474 27.858C77.4772 27.186 76.5649 26.8168 75.6195 26.8351H75.6278ZM79.856 30.4113C79.8499 28.4446 81.4257 26.8445 83.3778 26.8352C84.3232 26.8169 85.2355 27.1861 85.9057 27.8581C86.5759 28.5302 86.9466 29.4476 86.9329 30.4001C86.9328 32.3668 85.352 33.9619 83.3999 33.965C81.4479 33.9681 79.8621 32.3779 79.856 30.4113ZM81.288 31.3383C81.6682 32.1401 82.4962 32.6262 83.3761 32.5642C83.9283 32.5513 84.452 32.3142 84.8282 31.9068C85.2044 31.4993 85.4014 30.956 85.3743 30.4001C85.3721 29.5115 84.831 28.7146 84.0098 28.3904C83.1886 28.0663 82.2542 28.2808 81.6534 28.9314C81.0527 29.582 80.9078 30.5365 81.288 31.3383ZM73.5328 31.3448C73.9157 32.1461 74.7462 32.6298 75.6265 32.5644H75.6181C76.1704 32.5514 76.694 32.3144 77.0703 31.9069C77.4465 31.4994 77.6434 30.9561 77.6163 30.4002C77.6139 29.5109 77.0718 28.7137 76.2495 28.3902C75.4273 28.0668 74.4923 28.283 73.8925 28.9354C73.2926 29.5878 73.15 30.5435 73.5328 31.3448ZM101.087 26.8352C102.467 26.8865 103.673 27.7908 104.117 29.1084L104.292 29.4859L99.5548 31.457C99.8518 32.1383 100.532 32.5674 101.27 32.5391C101.983 32.5409 102.644 32.1649 103.01 31.5493L104.217 32.3881C103.56 33.3791 102.453 33.9715 101.27 33.9651C100.33 33.979 99.4241 33.607 98.7614 32.9347C98.0988 32.2623 97.736 31.3474 97.7565 30.4002C97.6989 29.4746 98.0242 28.5662 98.6551 27.8909C99.286 27.2156 100.166 26.8334 101.087 26.8352ZM99.2885 30.2996C99.2544 29.7755 99.4311 29.2596 99.7788 28.8683C100.127 28.477 100.616 28.2431 101.137 28.2194C101.686 28.183 102.203 28.48 102.452 28.9743L99.2885 30.2996ZM96.9988 33.7553H95.4419V23.2703H96.9988V33.7553ZM92.8959 27.6323H92.8376C92.363 27.0977 91.6846 26.7925 90.9727 26.7935C89.0828 26.8858 87.5977 28.4564 87.5977 30.3626C87.5977 32.2688 89.0828 33.8393 90.9727 33.9317C91.6869 33.9438 92.3697 33.6366 92.8376 33.0929H92.8876V33.6045C92.8876 34.9718 92.1632 35.7015 90.9976 35.7015C90.2036 35.6828 89.4996 35.1823 89.2159 34.4349L87.8588 35.0053C88.3814 36.286 89.6232 37.119 90.9976 37.1107C92.821 37.1107 94.3279 36.0287 94.3279 33.3948V27.0451H92.8959V27.6323ZM91.1099 32.5642L91.1125 32.5644H91.1041L91.1099 32.5642ZM92.5128 31.8915C92.1555 32.2989 91.6488 32.5417 91.1099 32.5642C89.9979 32.4641 89.1454 31.5253 89.1454 30.4003C89.1454 29.2744 89.9992 28.335 91.1125 28.2362C91.6504 28.264 92.1544 28.5094 92.5102 28.9169C92.866 29.3243 93.0435 29.8592 93.0024 30.4003C93.0483 30.9439 92.8714 31.4827 92.5128 31.8915ZM111.409 23.2701H107.688V33.7552H109.244V29.7792H111.417C112.627 29.8668 113.784 29.2663 114.415 28.2232C115.046 27.1802 115.046 25.8692 114.415 24.8261C113.784 23.7831 112.627 23.1826 111.417 23.2701H111.409ZM109.238 28.3031H111.411L111.444 28.3283C112.43 28.3283 113.23 27.5228 113.23 26.5291C113.23 25.5354 112.43 24.7298 111.444 24.7298H109.238V28.3031ZM121.009 26.7933C119.85 26.7236 118.761 27.3529 118.236 28.3955L119.618 28.9742C119.897 28.4572 120.452 28.1546 121.034 28.2025C121.433 28.1556 121.834 28.2721 122.147 28.5261C122.46 28.78 122.659 29.15 122.699 29.553V29.662C122.199 29.3953 121.641 29.257 121.075 29.2594C119.585 29.2594 118.078 30.0982 118.078 31.6165C118.108 32.2705 118.399 32.8846 118.885 33.3191C119.371 33.7535 120.011 33.9714 120.659 33.9232C121.458 33.9809 122.224 33.5949 122.657 32.9166H122.707V33.7554H124.206V29.7208C124.206 27.8838 122.824 26.8185 121.05 26.8185L121.009 26.7933ZM119.602 31.6501C119.602 32.2792 120.309 32.5393 120.817 32.5393L120.859 32.5644C121.797 32.5414 122.574 31.8258 122.682 30.8868C122.25 30.6439 121.761 30.5222 121.267 30.5345C120.484 30.5345 119.602 30.8113 119.602 31.6501ZM129.669 27.045L127.887 31.5913H127.837L125.989 27.045H124.324L127.096 33.4031L125.515 36.9344H127.138L131.401 27.045H129.669ZM117.229 33.7555H115.672V23.2705H117.229V33.7555Z" fill="white"/>
<path d="M61.3398 18.0723V12.3848H62.9453C63.4401 12.3848 63.8776 12.4941 64.2578 12.7129C64.638 12.9316 64.931 13.2428 65.1367 13.6465C65.3451 14.0501 65.4505 14.5137 65.4531 15.0371V15.4004C65.4531 15.9368 65.349 16.4069 65.1406 16.8105C64.9349 17.2142 64.6393 17.5241 64.2539 17.7402C63.8711 17.9564 63.4245 18.0671 62.9141 18.0723H61.3398ZM62.0898 13.002V17.459H62.8789C63.457 17.459 63.9062 17.2793 64.2266 16.9199C64.5495 16.5605 64.7109 16.0488 64.7109 15.3848V15.0527C64.7109 14.4069 64.5586 13.9056 64.2539 13.5488C63.9518 13.1895 63.5221 13.0072 62.9648 13.002H62.0898ZM66.2852 15.9199C66.2852 15.5059 66.3659 15.1335 66.5273 14.8027C66.6914 14.472 66.918 14.2168 67.207 14.0371C67.4987 13.8574 67.8307 13.7676 68.2031 13.7676C68.7786 13.7676 69.2435 13.9668 69.5977 14.3652C69.9544 14.7637 70.1328 15.2936 70.1328 15.9551V16.0059C70.1328 16.4173 70.0534 16.7871 69.8945 17.1152C69.7383 17.4408 69.513 17.6947 69.2188 17.877C68.9271 18.0592 68.5911 18.1504 68.2109 18.1504C67.638 18.1504 67.1732 17.9512 66.8164 17.5527C66.4622 17.1543 66.2852 16.627 66.2852 15.9707V15.9199ZM67.0117 16.0059C67.0117 16.4746 67.1198 16.8509 67.3359 17.1348C67.5547 17.4186 67.8464 17.5605 68.2109 17.5605C68.5781 17.5605 68.8698 17.4173 69.0859 17.1309C69.3021 16.8418 69.4102 16.4382 69.4102 15.9199C69.4102 15.4564 69.2995 15.0814 69.0781 14.7949C68.8594 14.5059 68.5677 14.3613 68.2031 14.3613C67.8464 14.3613 67.5586 14.5033 67.3398 14.7871C67.1211 15.071 67.0117 15.4772 67.0117 16.0059ZM74.7812 17.0762L75.5938 13.8457H76.3164L75.0859 18.0723H74.5L73.4727 14.8691L72.4727 18.0723H71.8867L70.6602 13.8457H71.3789L72.2109 17.0098L73.1953 13.8457H73.7773L74.7812 17.0762ZM77.7383 13.8457L77.7617 14.377C78.0846 13.9707 78.5065 13.7676 79.0273 13.7676C79.9206 13.7676 80.3711 14.2715 80.3789 15.2793V18.0723H79.6562V15.2754C79.6536 14.9707 79.5833 14.7454 79.4453 14.5996C79.3099 14.4538 79.0977 14.3809 78.8086 14.3809C78.5742 14.3809 78.3685 14.4434 78.1914 14.5684C78.0143 14.6934 77.8763 14.8574 77.7773 15.0605V18.0723H77.0547V13.8457H77.7383ZM82.2539 18.0723H81.5312V12.0723H82.2539V18.0723ZM83.2227 15.9199C83.2227 15.5059 83.3034 15.1335 83.4648 14.8027C83.6289 14.472 83.8555 14.2168 84.1445 14.0371C84.4362 13.8574 84.7682 13.7676 85.1406 13.7676C85.7161 13.7676 86.181 13.9668 86.5352 14.3652C86.8919 14.7637 87.0703 15.2936 87.0703 15.9551V16.0059C87.0703 16.4173 86.9909 16.7871 86.832 17.1152C86.6758 17.4408 86.4505 17.6947 86.1562 17.877C85.8646 18.0592 85.5286 18.1504 85.1484 18.1504C84.5755 18.1504 84.1107 17.9512 83.7539 17.5527C83.3997 17.1543 83.2227 16.627 83.2227 15.9707V15.9199ZM83.9492 16.0059C83.9492 16.4746 84.0573 16.8509 84.2734 17.1348C84.4922 17.4186 84.7839 17.5605 85.1484 17.5605C85.5156 17.5605 85.8073 17.4173 86.0234 17.1309C86.2396 16.8418 86.3477 16.4382 86.3477 15.9199C86.3477 15.4564 86.237 15.0814 86.0156 14.7949C85.7969 14.5059 85.5052 14.3613 85.1406 14.3613C84.7839 14.3613 84.4961 14.5033 84.2773 14.7871C84.0586 15.071 83.9492 15.4772 83.9492 16.0059ZM90.5859 18.0723C90.5443 17.9889 90.5104 17.8405 90.4844 17.627C90.1484 17.9759 89.7474 18.1504 89.2812 18.1504C88.8646 18.1504 88.5221 18.0332 88.2539 17.7988C87.9883 17.5618 87.8555 17.2624 87.8555 16.9004C87.8555 16.4603 88.0221 16.1191 88.3555 15.877C88.6914 15.6322 89.1628 15.5098 89.7695 15.5098H90.4727V15.1777C90.4727 14.9251 90.3971 14.7246 90.2461 14.5762C90.0951 14.4251 89.8724 14.3496 89.5781 14.3496C89.3203 14.3496 89.1042 14.4147 88.9297 14.5449C88.7552 14.6751 88.668 14.8327 88.668 15.0176H87.9414C87.9414 14.8066 88.0156 14.6035 88.1641 14.4082C88.3151 14.2103 88.5182 14.054 88.7734 13.9395C89.0312 13.8249 89.3138 13.7676 89.6211 13.7676C90.1081 13.7676 90.4896 13.89 90.7656 14.1348C91.0417 14.377 91.1849 14.7116 91.1953 15.1387V17.084C91.1953 17.472 91.2448 17.7806 91.3438 18.0098V18.0723H90.5859ZM89.3867 17.5215C89.6133 17.5215 89.8281 17.4629 90.0312 17.3457C90.2344 17.2285 90.3815 17.0762 90.4727 16.8887V16.0215H89.9062C89.0208 16.0215 88.5781 16.2806 88.5781 16.7988C88.5781 17.0254 88.6536 17.2025 88.8047 17.3301C88.9557 17.4577 89.1497 17.5215 89.3867 17.5215ZM92.1523 15.9238C92.1523 15.2754 92.306 14.7546 92.6133 14.3613C92.9206 13.9655 93.3229 13.7676 93.8203 13.7676C94.3151 13.7676 94.707 13.9368 94.9961 14.2754V12.0723H95.7188V18.0723H95.0547L95.0195 17.6191C94.7305 17.9733 94.3281 18.1504 93.8125 18.1504C93.3229 18.1504 92.9232 17.9499 92.6133 17.5488C92.306 17.1478 92.1523 16.6243 92.1523 15.9785V15.9238ZM92.875 16.0059C92.875 16.485 92.974 16.86 93.1719 17.1309C93.3698 17.4017 93.6432 17.5371 93.9922 17.5371C94.4505 17.5371 94.7852 17.3314 94.9961 16.9199V14.9785C94.7799 14.5801 94.4479 14.3809 94 14.3809C93.6458 14.3809 93.3698 14.5176 93.1719 14.791C92.974 15.0645 92.875 15.4694 92.875 16.0059ZM100.223 17.0918L101.27 13.8457H102.008L100.492 18.0723H99.9414L98.4102 13.8457H99.1484L100.223 17.0918ZM103.488 18.0723H102.766V13.8457H103.488V18.0723ZM102.707 12.7246C102.707 12.6074 102.742 12.5085 102.812 12.4277C102.885 12.347 102.992 12.3066 103.133 12.3066C103.273 12.3066 103.38 12.347 103.453 12.4277C103.526 12.5085 103.562 12.6074 103.562 12.7246C103.562 12.8418 103.526 12.9395 103.453 13.0176C103.38 13.0957 103.273 13.1348 103.133 13.1348C102.992 13.1348 102.885 13.0957 102.812 13.0176C102.742 12.9395 102.707 12.8418 102.707 12.7246ZM107.258 18.0723C107.216 17.9889 107.182 17.8405 107.156 17.627C106.82 17.9759 106.419 18.1504 105.953 18.1504C105.536 18.1504 105.194 18.0332 104.926 17.7988C104.66 17.5618 104.527 17.2624 104.527 16.9004C104.527 16.4603 104.694 16.1191 105.027 15.877C105.363 15.6322 105.835 15.5098 106.441 15.5098H107.145V15.1777C107.145 14.9251 107.069 14.7246 106.918 14.5762C106.767 14.4251 106.544 14.3496 106.25 14.3496C105.992 14.3496 105.776 14.4147 105.602 14.5449C105.427 14.6751 105.34 14.8327 105.34 15.0176H104.613C104.613 14.8066 104.688 14.6035 104.836 14.4082C104.987 14.2103 105.19 14.054 105.445 13.9395C105.703 13.8249 105.986 13.7676 106.293 13.7676C106.78 13.7676 107.161 13.89 107.438 14.1348C107.714 14.377 107.857 14.7116 107.867 15.1387V17.084C107.867 17.472 107.917 17.7806 108.016 18.0098V18.0723H107.258ZM106.059 17.5215C106.285 17.5215 106.5 17.4629 106.703 17.3457C106.906 17.2285 107.053 17.0762 107.145 16.8887V16.0215H106.578C105.693 16.0215 105.25 16.2806 105.25 16.7988C105.25 17.0254 105.326 17.2025 105.477 17.3301C105.628 17.4577 105.822 17.5215 106.059 17.5215Z" fill="white"/>
<path fill-rule="evenodd" clip-rule="evenodd" d="M29.2227 13.1828V33.7011C29.2227 34.4153 29.6356 35.0328 30.2354 35.3274L42.109 23.4385L30.2401 11.5542C29.6378 11.8479 29.2227 12.4668 29.2227 13.1828ZM32.8984 34.7109L45.8763 27.2085L43.1337 24.4624L32.8984 34.7109ZM49.91 22.0035C50.3416 22.3343 50.6201 22.8556 50.6201 23.4419C50.6201 24.0195 50.3501 24.5337 49.9295 24.8652L47.1729 26.4588L44.1562 23.4384L47.1708 20.4199L49.91 22.0035ZM45.8705 19.6702L32.9023 12.1733L43.13 22.4142L45.8705 19.6702Z" fill="white"/>
</g>
<defs>
<clipPath id="clip0_14_249">
<rect width="103.171" height="27.0732" fill="white" transform="translate(28.8594 10.2856)"/>
</clipPath>
</defs>
</svg>
