<svg width="17" height="17" viewBox="0 0 17 17" fill="none" xmlns="http://www.w3.org/2000/svg">
<path d="M8.41797 0.283203C6.2432 0.283203 5.97216 0.293704 5.12106 0.329709C4.26645 0.371714 3.68838 0.504231 3.17831 0.702256C2.64448 0.903791 2.16102 1.21933 1.76164 1.62687C1.35296 2.02532 1.03724 2.50905 0.837021 3.04355C0.638996 3.55361 0.50648 4.13168 0.464475 4.98629C0.42597 5.8379 0.417969 6.10843 0.417969 8.2832C0.417969 10.458 0.42847 10.729 0.464475 11.5801C0.50648 12.4322 0.638996 13.0128 0.837021 13.5229C1.03856 14.0567 1.35409 14.5402 1.76164 14.9395C2.16009 15.3482 2.64381 15.6639 3.17831 15.8642C3.68838 16.0597 4.26895 16.1947 5.12106 16.2367C5.97266 16.2752 6.2432 16.2832 8.41797 16.2832C10.5927 16.2832 10.8638 16.2727 11.7149 16.2367C12.567 16.1947 13.1476 16.0592 13.6576 15.8642C14.1915 15.6626 14.6749 15.3471 15.0743 14.9395C15.4835 14.5415 15.7993 14.0577 15.9989 13.5229C16.1944 13.0128 16.3295 12.4322 16.3715 11.5801C16.41 10.7285 16.418 10.458 16.418 8.2832C16.418 6.10843 16.4075 5.8374 16.3715 4.98629C16.3295 4.13418 16.1939 3.55061 15.9989 3.04355C15.7974 2.50971 15.4818 2.02625 15.0743 1.62687C14.6763 1.21766 14.1924 0.90187 13.6576 0.702256C13.1476 0.504231 12.567 0.371714 11.7149 0.329709C10.8633 0.291204 10.5927 0.283203 8.41797 0.283203ZM8.41797 1.72338C10.5537 1.72338 10.8088 1.73388 11.6529 1.76989C12.4315 1.80639 12.8555 1.93641 13.1371 2.04642C13.4851 2.1749 13.8001 2.37939 14.0592 2.645C14.3243 2.90294 14.5281 3.21724 14.6552 3.56461C14.7653 3.84615 14.8953 4.2702 14.9318 5.0488C14.9678 5.8929 14.9783 6.14844 14.9783 8.2837C14.9783 10.419 14.9678 10.6745 14.9288 11.5186C14.8868 12.2972 14.7568 12.7213 14.6472 13.0028C14.4957 13.3783 14.3267 13.6409 14.0477 13.9249C13.7878 14.1889 13.4729 14.3924 13.1256 14.521C12.8475 14.631 12.4175 14.761 11.6359 14.7975C10.7873 14.8335 10.5372 14.844 8.39597 14.844C6.2547 14.844 6.00517 14.8335 5.15556 14.7945C4.37696 14.7525 3.94741 14.6225 3.66587 14.513C3.28583 14.3615 3.02529 14.1924 2.74626 13.9134C2.46472 13.6319 2.2857 13.3638 2.14768 12.9913C2.03567 12.7133 1.90765 12.2832 1.86615 11.5016C1.83765 10.663 1.82414 10.403 1.82414 8.2717C1.82414 6.14144 1.83765 5.8809 1.86615 5.0318C1.90765 4.2502 2.03567 3.82115 2.14768 3.54211C2.2857 3.16156 2.46522 2.90153 2.74626 2.62C3.02479 2.34146 3.28583 2.16144 3.66587 2.02042C3.94741 1.91091 4.36646 1.78089 5.14806 1.74189C5.99667 1.71138 6.2467 1.70038 8.38496 1.70038L8.41797 1.72338ZM8.41797 4.17719C7.87857 4.17699 7.34443 4.28309 6.84605 4.48942C6.34768 4.69574 5.89484 4.99826 5.51343 5.37967C5.13202 5.76108 4.82951 6.21391 4.62318 6.71228C4.41685 7.21066 4.31076 7.74481 4.31096 8.2842C4.31076 8.8236 4.41685 9.35775 4.62318 9.85612C4.82951 10.3545 5.13202 10.8073 5.51343 11.1887C5.89484 11.5702 6.34768 11.8727 6.84605 12.079C7.34443 12.2853 7.87857 12.3914 8.41797 12.3912C8.95736 12.3914 9.49151 12.2853 9.98989 12.079C10.4883 11.8727 10.9411 11.5702 11.3225 11.1887C11.7039 10.8073 12.0064 10.3545 12.2128 9.85612C12.4191 9.35775 12.5252 8.8236 12.525 8.2842C12.5252 7.74481 12.4191 7.21066 12.2128 6.71228C12.0064 6.21391 11.7039 5.76108 11.3225 5.37967C10.9411 4.99826 10.4883 4.69574 9.98989 4.48942C9.49151 4.28309 8.95736 4.17699 8.41797 4.17719ZM8.41797 10.951C6.94378 10.951 5.75114 9.75839 5.75114 8.2842C5.75114 6.81002 6.94378 5.61737 8.41797 5.61737C9.89215 5.61737 11.0848 6.81002 11.0848 8.2842C11.0848 9.75839 9.89215 10.951 8.41797 10.951ZM13.6506 4.01317C13.6504 4.26803 13.5489 4.51237 13.3686 4.69249C13.1883 4.87261 12.9439 4.97379 12.689 4.97379C12.563 4.97379 12.4382 4.94897 12.3218 4.90074C12.2053 4.85252 12.0996 4.78183 12.0104 4.69272C11.9213 4.60361 11.8507 4.49783 11.8024 4.3814C11.7542 4.26497 11.7294 4.14019 11.7294 4.01417C11.7294 3.88815 11.7542 3.76337 11.8024 3.64694C11.8507 3.53051 11.9213 3.42472 12.0104 3.33562C12.0996 3.24651 12.2053 3.17582 12.3218 3.1276C12.4382 3.07937 12.563 3.05455 12.689 3.05455C13.2176 3.05455 13.6506 3.4846 13.6506 4.01317Z" fill="white"/>
</svg>
