<svg width="24" height="24" viewBox="0 0 24 24" fill="none" xmlns="http://www.w3.org/2000/svg">
<path d="M0 22.7448L6.70401 16.0408C5.093 14.1067 4.28964 11.626 4.46106 9.11474C4.63248 6.60346 5.76547 4.25494 7.62436 2.55775C9.48324 0.86055 11.9249 -0.0546525 14.4414 0.00252659C16.9578 0.0597056 19.3554 1.08486 21.1353 2.86474C22.9151 4.64462 23.9403 7.04217 23.9975 9.55864C24.0547 12.0751 23.1394 14.5168 21.4423 16.3756C19.7451 18.2345 17.3965 19.3675 14.8853 19.5389C12.374 19.7104 9.89329 18.907 7.95924 17.296L1.25523 24L0 22.7448ZM22.1928 9.79659C22.1928 8.21643 21.7243 6.67176 20.8464 5.35791C19.9685 4.04405 18.7207 3.02003 17.2608 2.41533C15.801 1.81063 14.1945 1.65241 12.6448 1.96069C11.095 2.26896 9.67138 3.02988 8.55404 4.14722C7.4367 5.26456 6.67578 6.68814 6.36751 8.23793C6.05923 9.78773 6.21745 11.3941 6.82215 12.854C7.42685 14.3139 8.45087 15.5617 9.76473 16.4395C11.0786 17.3174 12.6233 17.786 14.2034 17.786C16.3216 17.7837 18.3524 16.9412 19.8502 15.4434C21.348 13.9456 22.1905 11.9148 22.1928 9.79659Z" fill="#495057"/>
</svg>
