<svg width="10" height="6" viewBox="0 0 10 6" fill="none" xmlns="http://www.w3.org/2000/svg">
<path d="M5.31153 5.8583L9.88116 0.766689C9.95744 0.681733 10 0.568863 10 0.451489C10 0.334116 9.95744 0.221247 9.88116 0.136291L9.876 0.130809C9.83901 0.0894813 9.7945 0.0565729 9.74516 0.0340853C9.69582 0.0115976 9.64269 9.22437e-07 9.589 9.17743e-07C9.5353 9.13049e-07 9.48217 0.0115976 9.43283 0.0340852C9.38349 0.0565729 9.33898 0.0894813 9.302 0.130809L4.99914 4.92549L0.698005 0.130808C0.661024 0.0894805 0.61651 0.0565721 0.567171 0.0340844C0.517831 0.0115968 0.464699 1.20072e-07 0.411006 1.15378e-07C0.357312 1.10684e-07 0.304179 0.0115968 0.254839 0.0340844C0.205501 0.0565721 0.160986 0.0894805 0.124005 0.130808L0.118841 0.13629C0.0425563 0.221246 -4.58347e-07 0.334115 -4.68608e-07 0.451489C-4.78869e-07 0.568862 0.0425563 0.681732 0.118841 0.766688L4.68847 5.8583C4.72866 5.90308 4.77699 5.93872 4.83054 5.96308C4.88409 5.98744 4.94174 6 5 6C5.05826 6 5.11591 5.98744 5.16946 5.96308C5.22301 5.93872 5.27134 5.90308 5.31153 5.8583Z" fill="#495057"/>
</svg>
