<svg width="112" height="21" viewBox="0 0 112 21" fill="none" xmlns="http://www.w3.org/2000/svg">
<g clip-path="url(#clip0_14_278)">
<path d="M89.1199 1.92488C88.9696 1.92535 88.8189 1.931 88.6681 1.93948C87.203 2.02898 85.9594 2.60371 84.9324 3.6448C84.0704 4.5163 83.4768 5.56211 83.0575 6.70684C82.6194 7.90339 82.3697 9.14234 82.2378 10.4096C82.1106 11.6155 82.0965 12.8168 82.3462 14.0133C82.544 14.9461 82.8974 15.8082 83.5427 16.5289C84.4661 17.5606 85.672 17.928 87.0099 17.8998C87.4056 17.8904 87.6082 18.0128 87.7919 18.3473C88.1217 18.9456 88.5032 19.5109 88.8754 20.1044C90.1002 19.5533 91.3109 19.0115 92.5451 18.4557C91.9987 17.7961 91.4616 17.1555 90.9105 16.4959C91.5559 15.8694 92.0741 15.1863 92.4745 14.4279C93.4779 12.5106 93.8547 10.4472 93.9442 8.31323C93.9914 7.21561 93.9113 6.13212 93.5627 5.08631C93.1246 3.7767 92.3614 2.75445 91.0282 2.24097C90.4121 2.00355 89.7709 1.92205 89.1199 1.92488ZM88.6163 5.66575C88.6432 5.66527 88.67 5.66528 88.6964 5.66669C89.0695 5.68176 89.3634 5.86313 89.4873 6.20702C89.4963 6.23152 89.5043 6.25696 89.5114 6.28334C89.6244 6.69789 89.6621 7.14071 89.6998 7.37625C89.5867 9.26529 89.4124 10.9376 88.9461 12.5676C88.8401 12.952 88.6841 13.3152 88.4015 13.6077C88.3826 13.6271 88.3633 13.6464 88.3431 13.6652C87.896 14.092 87.2911 14.0925 86.9124 13.7514C86.9124 13.7514 86.9119 13.7514 86.9119 13.7509C86.8997 13.7396 86.8879 13.7279 86.8761 13.7161C86.8724 13.7123 86.8681 13.7085 86.8643 13.7048L86.8639 13.7043C86.8328 13.6723 86.804 13.6379 86.7767 13.6007L86.7763 13.6002C86.7357 13.5446 86.6995 13.4829 86.6693 13.416C86.6632 13.4028 86.658 13.3892 86.6528 13.376C86.6491 13.3665 86.6443 13.3571 86.6411 13.3472C86.6387 13.3411 86.6368 13.335 86.6349 13.3289C86.6199 13.2874 86.6067 13.2441 86.5958 13.1988C86.4922 12.7701 86.4733 12.3132 86.4922 11.8704C86.4964 11.7729 86.5007 11.6749 86.5059 11.5774C86.5826 10.1132 86.773 8.66702 87.1705 7.25377C87.2836 6.85335 87.4862 6.47177 87.7076 6.11846C87.9003 5.80236 88.2441 5.67046 88.6163 5.66575Z" fill="white"/>
<path d="M53.3636 17.6076C52.0587 17.6076 50.7774 17.6076 49.4725 17.6076C49.5431 17.0564 49.6138 16.5241 49.6845 15.9917C49.8164 14.9742 49.953 13.9567 50.0849 12.9391C50.1555 12.4021 50.2262 11.8698 50.2969 11.3327C50.311 11.215 50.3251 11.0972 50.3204 10.9794C50.311 10.7439 50.2639 10.5177 50.0189 10.4141C49.7551 10.3058 49.496 10.3199 49.2652 10.5036C48.9354 10.7674 48.8695 11.149 48.8177 11.5306C48.6151 13.0522 48.4172 14.5738 48.2147 16.0954C48.1581 16.5146 48.111 16.9339 48.0545 17.3532C48.0451 17.438 48.0215 17.518 48.0074 17.6076C46.7166 17.6076 45.44 17.6076 44.1257 17.6076C44.1728 17.2354 44.2152 16.8727 44.2623 16.5099C44.446 15.1108 44.6297 13.7164 44.8135 12.3173C45.0113 10.8334 45.2092 9.34946 45.407 7.87026C45.4447 7.57348 45.473 7.2767 45.5248 6.98463C45.5342 6.91867 45.6284 6.81504 45.685 6.81504C46.8768 6.80561 48.0686 6.80561 49.3029 6.80561C49.2416 7.30496 49.1851 7.78076 49.1286 8.25655C49.1427 8.26597 49.1568 8.27539 49.171 8.28482C49.2134 8.233 49.2605 8.18118 49.3029 8.12465C50.1037 7.13537 51.1071 6.57007 52.4073 6.58892C53.5473 6.60305 54.2257 7.12124 54.5083 8.22358C54.5178 8.25655 54.5225 8.29424 54.5272 8.30837C54.8381 7.97861 55.1255 7.60646 55.4788 7.3191C56.3833 6.5795 57.4338 6.42404 58.5361 6.72082C59.3605 6.94223 59.841 7.65356 59.8363 8.63342C59.8316 9.21285 59.7562 9.78757 59.6808 10.3623C59.5254 11.6295 59.3511 12.892 59.1815 14.1592C59.0355 15.2521 58.8988 16.3498 58.7434 17.4427C58.734 17.5039 58.635 17.6028 58.5738 17.6028C57.3396 17.6123 56.11 17.6076 54.8758 17.6076C54.8522 17.6076 54.8334 17.5934 54.8004 17.584C54.8993 16.8208 54.9983 16.0624 55.1019 15.304C55.2668 14.0462 55.4364 12.7884 55.5965 11.5306C55.6201 11.3469 55.6389 11.1584 55.6437 10.97C55.6484 10.7203 55.5777 10.4895 55.3233 10.3953C55.0595 10.2963 54.7957 10.3246 54.579 10.5225C54.334 10.7486 54.2398 11.0454 54.1974 11.361C53.9383 13.3113 53.6887 15.2616 53.4296 17.2071C53.4107 17.339 53.3872 17.4615 53.3636 17.6076Z" fill="#94C120"/>
<path d="M95.657 2.23647C97.1032 2.23647 98.5306 2.23647 99.9674 2.23647C99.8214 3.36236 99.6706 4.46941 99.5246 5.58116C99.3597 6.82482 99.1948 8.06848 99.0299 9.30743C98.8933 10.325 98.7567 11.3425 98.6248 12.36C98.6012 12.5485 98.5871 12.7369 98.5824 12.9206C98.573 13.7168 99.0676 13.924 99.7318 13.7874C100.104 13.7073 100.34 13.4483 100.429 13.0949C100.537 12.6663 100.608 12.2234 100.669 11.7806C100.829 10.6312 100.976 9.48173 101.131 8.33229C101.296 7.09805 101.456 5.86381 101.616 4.62486C101.715 3.87113 101.809 3.1174 101.908 2.36366C101.913 2.31656 101.937 2.27416 101.951 2.22705C103.373 2.22705 104.796 2.22705 106.252 2.22705C106.209 2.57565 106.172 2.92425 106.124 3.26814C105.941 4.67197 105.757 6.08051 105.569 7.48434C105.39 8.85048 105.196 10.2166 105.022 11.5828C104.9 12.5626 104.739 13.533 104.391 14.4658C103.609 16.5715 102.064 17.6597 99.859 17.8623C98.8556 17.9565 97.8569 17.9424 96.8724 17.6739C95.2283 17.2216 94.5217 16.124 94.3097 14.6589C94.1542 13.5896 94.2814 12.5343 94.4227 11.4744C94.5923 10.2072 94.7572 8.9447 94.9221 7.67748C95.087 6.43382 95.2518 5.19487 95.4167 3.95122C95.5062 3.38592 95.5769 2.82062 95.657 2.23647Z" fill="white"/>
<path d="M4.72496 2.22221C3.90858 2.22315 3.09266 2.22692 2.27533 2.22692H2.03037C1.35201 7.36644 0.67836 12.4824 0 17.6172H4.3057C4.56008 15.6999 4.81447 13.7873 5.06885 11.8747H5.12067C5.49283 13.7826 5.86498 15.6905 6.23714 17.6078H10.8019C10.0859 15.3325 9.37455 13.076 8.66322 10.8053C8.74801 10.7629 8.81868 10.73 8.89405 10.7064C9.76555 10.2966 10.5287 9.75012 11.061 8.92572C11.6546 8.0024 11.8525 6.97544 11.7959 5.89666C11.7347 4.74251 11.2589 3.80034 10.312 3.11727C9.37455 2.44362 8.29577 2.24105 7.1746 2.23163C6.35727 2.22221 5.54088 2.22127 4.72496 2.22221ZM6.21453 5.43311C6.89006 5.44065 7.34701 5.90655 7.36774 6.63626C7.38187 7.21569 7.31592 7.77628 7.02385 8.28976C6.99464 8.33923 6.9612 8.38681 6.92586 8.4325C6.90796 8.45558 6.88959 8.4782 6.87028 8.50034C6.52968 8.90029 5.95402 9.12876 5.4363 9.04821C5.59176 7.84694 5.75192 6.65039 5.90738 5.45855C5.9413 5.4529 5.97428 5.44866 6.00725 5.44489C6.07839 5.43641 6.14763 5.43217 6.21453 5.43311Z" fill="#94C120"/>
<path d="M75.534 2.22221C75.3314 2.2175 75.2419 2.26932 75.1712 2.47189C73.5225 7.18743 71.8642 11.903 70.2107 16.6185C70.0977 16.9483 69.9846 17.278 69.8669 17.6266C71.1812 17.6266 72.4578 17.6172 73.7392 17.6313C73.9935 17.6361 74.1019 17.5654 74.1631 17.311C74.3186 16.6609 74.5117 16.0155 74.6907 15.3796H77.2393V17.6078H81.4461C81.0033 12.473 80.5604 7.36173 80.1129 2.22221C79.9951 2.22221 79.9056 2.22221 79.8208 2.22692C78.3935 2.22692 76.9614 2.23163 75.534 2.22221ZM77.0697 6.73048C77.0838 6.73048 77.098 6.73048 77.1121 6.73519C77.1498 8.55828 77.1875 10.3814 77.2205 12.2233H75.534C76.0475 10.3767 76.5609 8.55357 77.0697 6.73048Z" fill="white"/>
<path d="M37.8992 6.51419C37.137 6.52879 36.3517 6.84301 35.7676 7.40878C35.0515 8.09656 34.6134 8.94451 34.3025 9.86783C33.888 11.1115 33.6948 12.3975 33.6666 13.7024C33.6477 14.5268 33.7184 15.3465 34.0199 16.1285C34.3873 17.0895 35.0091 17.7632 36.0785 17.8998C36.9736 18.0129 37.7697 17.7443 38.4575 17.1696C38.7024 16.9623 38.9333 16.7362 39.1924 16.5007C39.1405 16.8823 39.0981 17.2356 39.051 17.6077H42.9657C43.4415 14.0134 43.9126 10.4237 44.3884 6.82463H40.4784C40.4219 7.19208 40.3748 7.5501 40.3088 7.95052C40.2099 7.8092 40.1439 7.71498 40.0733 7.62077C39.7953 7.25332 39.4703 6.94241 39.0463 6.74455C38.6916 6.58108 38.2987 6.50665 37.8992 6.51419ZM38.9926 9.88479C39.0784 9.88244 39.1622 9.89987 39.2404 9.9352C39.4091 10.0096 39.5499 10.1707 39.621 10.4096C39.6959 10.6574 39.7204 10.9183 39.7412 11.0983C39.7468 11.1426 39.752 11.1864 39.7577 11.2198C39.7143 11.9251 39.6653 12.5313 39.5127 13.0952C39.4665 13.2709 39.4114 13.4434 39.3431 13.6129C39.2442 13.8438 39.117 14.0793 38.9474 14.2677C38.6304 14.6178 38.2102 14.6135 37.9628 14.32C37.8917 14.2376 37.8347 14.1321 37.798 14.0039C37.7179 13.7307 37.6943 13.4339 37.699 13.1466C37.7037 12.3693 37.8074 11.6014 38.0759 10.8665C38.1654 10.6216 38.2926 10.3719 38.4575 10.174C38.6162 9.98278 38.8084 9.88903 38.9926 9.88479Z" fill="#94C120"/>
<path d="M65.6844 6.51709C65.633 6.51709 65.5822 6.51756 65.5308 6.5185C63.8161 6.54206 62.4075 7.211 61.4465 8.63838C60.1558 10.5557 59.8307 12.7038 60.1934 14.9556C60.3395 15.8459 60.7729 16.6091 61.5125 17.165C62.2426 17.7114 63.0812 17.8904 63.9668 17.914C66.3552 17.9752 68.2678 16.7504 69.0875 14.6306C69.1864 14.3809 69.2571 14.1218 69.3513 13.8344C68.2442 13.8344 67.1937 13.8297 66.1432 13.8391C66.0914 13.8391 66.0254 13.9192 65.9925 13.9757C65.8559 14.2019 65.7522 14.4563 65.5873 14.6588C65.3047 15.0027 64.9184 15.1063 64.485 15.0027C64.0799 14.9085 63.9009 14.5976 63.882 14.2254C63.8537 13.7543 63.8867 13.2738 63.9103 12.798C63.9103 12.7556 64.0422 12.685 64.1128 12.685C64.7158 12.6756 65.3235 12.6803 65.9265 12.6803H69.6151C69.6339 12.6237 69.6528 12.5908 69.6622 12.5578C69.8459 11.5355 69.9449 10.5039 69.7611 9.47219C69.5586 8.33688 69.0121 7.43712 67.9192 6.94248C67.2083 6.62026 66.4518 6.51709 65.6844 6.51709ZM65.6194 9.01666C65.9887 9.01854 66.3185 9.27057 66.4065 9.66063C66.4819 10.0045 66.4584 10.372 66.4678 10.73C66.4678 10.7314 66.4678 10.7328 66.4678 10.7347C66.4678 10.7724 66.383 10.8478 66.3359 10.8478H64.103C64.1571 10.7309 64.2075 10.6174 64.2561 10.5058C64.4021 10.1718 64.5326 9.86084 64.7059 9.57112C64.8378 9.36385 65.0734 9.16599 65.3042 9.07648C65.4097 9.0355 65.5162 9.01619 65.6194 9.01666Z" fill="#94C120"/>
<path d="M16.5543 6.5183C14.9621 6.52772 13.6242 7.14955 12.682 8.44503C11.2594 10.3953 10.9061 12.6188 11.2971 14.9507C11.5373 16.3639 12.3853 17.3438 13.8126 17.7348C14.6041 17.9515 15.4143 17.975 16.2152 17.8337C18.4057 17.4474 19.7577 16.119 20.3842 14.0179C20.3984 13.9614 20.3984 13.9002 20.4078 13.8248C19.3384 13.8248 18.2926 13.8248 17.2515 13.8342C17.1903 13.8389 17.1008 13.9331 17.0725 14.0038C16.9406 14.3289 16.7757 14.6304 16.4837 14.8376C15.9042 15.2475 15.1646 15.0355 15.0045 14.3995C14.8632 13.8389 14.9432 13.2689 15.0186 12.6848H20.7376C20.9448 11.5212 21.0673 10.3765 20.8129 9.22232C20.5209 7.91271 19.7247 7.0412 18.4151 6.72558C17.8121 6.57954 17.1762 6.51359 16.5543 6.5183ZM16.6274 9.02776C16.7268 9.02446 16.8313 9.03718 16.9406 9.06686C17.3787 9.18463 17.5248 9.53794 17.5719 9.93836C17.6001 10.188 17.586 10.4377 17.5719 10.6874C17.5709 10.7015 17.5643 10.718 17.5544 10.7345V10.735C17.5281 10.7868 17.4659 10.8428 17.4258 10.8428C16.7145 10.8523 16.0032 10.8476 15.2683 10.8476C15.2852 10.784 15.3027 10.7213 15.321 10.6587C15.3389 10.5965 15.3578 10.5348 15.3771 10.474C15.4939 10.1094 15.6404 9.77113 15.8666 9.46728C15.9683 9.32972 16.0828 9.22326 16.21 9.14977C16.3372 9.0744 16.4761 9.03294 16.6274 9.02776Z" fill="#94C120"/>
<path d="M105.672 17.622C106.35 12.473 107.024 7.35707 107.698 2.23169C109.13 2.23169 110.548 2.23169 112.003 2.23169C111.961 2.58029 111.923 2.91947 111.881 3.25394C111.73 4.40338 111.579 5.55283 111.424 6.70227C111.273 7.83758 111.122 8.96818 110.972 10.1035C110.807 11.3471 110.647 12.5908 110.482 13.8298C110.321 15.0404 110.166 16.2511 110.001 17.4618C109.992 17.5183 109.902 17.6126 109.85 17.6126C108.47 17.622 107.09 17.622 105.672 17.622Z" fill="white"/>
<path d="M28.0048 17.6029C28.7444 12.0064 29.4793 6.4241 30.2189 0.827637C31.519 0.827637 32.8098 0.827637 34.1336 0.827637C34.0912 1.17153 34.0535 1.506 34.0111 1.83575C33.8273 3.23487 33.6436 4.62928 33.4599 6.02839C33.2762 7.40396 33.0925 8.77481 32.9087 10.1504C32.7109 11.6343 32.5224 13.1182 32.3293 14.6021C32.2068 15.5584 32.0749 16.51 31.9571 17.4663C31.9383 17.6312 31.83 17.617 31.7216 17.617C30.5533 17.617 29.3803 17.617 28.212 17.617C28.1414 17.6217 28.0801 17.6123 28.0048 17.6029Z" fill="#94C120"/>
<path d="M27.5185 14.084C27.4526 14.6069 27.3913 15.111 27.3254 15.6104C27.2547 16.1709 27.1793 16.7268 27.0993 17.2874C27.0898 17.3628 27.0286 17.4711 26.9626 17.4994C25.4787 18.1071 24.0137 18.1589 22.6475 17.2026C21.8514 16.6467 21.4321 15.7988 21.2814 14.866C20.9375 12.6708 21.2578 10.5839 22.5109 8.70899C23.2694 7.56897 24.3199 6.80581 25.7048 6.5844C26.6517 6.43366 27.5798 6.4949 28.4654 6.94243C28.3194 8.04005 28.1733 9.12825 28.032 10.2212C27.8247 10.1552 27.6457 10.0798 27.4573 10.0469C26.8826 9.94322 26.4303 10.1693 26.1241 10.6404C25.5635 11.5025 25.4175 12.4588 25.5965 13.4528C25.7096 14.084 26.2325 14.3902 26.8637 14.2583C27.0757 14.2159 27.283 14.15 27.5185 14.084Z" fill="#94C120"/>
</g>
<defs>
<clipPath id="clip0_14_278">
<rect width="112" height="19.2767" fill="white" transform="translate(0 0.827637)"/>
</clipPath>
</defs>
</svg>
