<svg width="20" height="20" viewBox="0 0 20 20" fill="none" xmlns="http://www.w3.org/2000/svg">
<path fill-rule="evenodd" clip-rule="evenodd" d="M15.17 4.80163C13.7983 3.42913 11.9742 2.67246 10.0308 2.67163C6.02501 2.67163 2.76584 5.92913 2.76501 9.9333C2.76334 11.2075 3.09751 12.46 3.73417 13.5641L2.70334 17.3275L6.55501 16.3175C7.62084 16.8975 8.81417 17.2016 10.0275 17.2016H10.0308C14.035 17.2016 17.2942 13.9433 17.2958 9.93913C17.2967 7.99913 16.5417 6.17496 15.17 4.80163Z" stroke="#CED4DA" stroke-width="1.5" stroke-linecap="round" stroke-linejoin="round"/>
<path d="M10.9125 11.2999L11.2508 10.9641C11.5617 10.6558 12.0533 10.6166 12.4117 10.8683C12.7583 11.1116 13.0717 11.3299 13.3633 11.5333C13.8267 11.8549 13.8825 12.5149 13.4833 12.9133L13.1842 13.2124" stroke="#CED4DA" stroke-width="1.5" stroke-linecap="round" stroke-linejoin="round"/>
<path d="M6.78751 6.81583L7.08667 6.51666C7.48501 6.11833 8.14501 6.17416 8.46667 6.63666C8.66917 6.92833 8.88751 7.24166 9.13167 7.58833C9.38334 7.94666 9.34501 8.43833 9.03584 8.74916L8.70001 9.08749" stroke="#CED4DA" stroke-width="1.5" stroke-linecap="round" stroke-linejoin="round"/>
<path d="M13.1842 13.2126C11.95 14.4409 9.87584 13.3976 8.23834 11.7593" stroke="#CED4DA" stroke-width="1.5" stroke-linecap="round" stroke-linejoin="round"/>
<path d="M8.23999 11.7618C6.60249 10.1234 5.55916 8.05008 6.78749 6.81592" stroke="#CED4DA" stroke-width="1.5" stroke-linecap="round" stroke-linejoin="round"/>
<path d="M8.69998 9.0874C8.96581 9.50657 9.30665 9.92157 9.69165 10.3066L9.69331 10.3082C10.0783 10.6932 10.4933 11.0341 10.9125 11.2999" stroke="#CED4DA" stroke-width="1.5" stroke-linecap="round" stroke-linejoin="round"/>
</svg>
