<svg width="20" height="20" viewBox="0 0 20 20" fill="none" xmlns="http://www.w3.org/2000/svg">
<path fill-rule="evenodd" clip-rule="evenodd" d="M9.04668 10.9533C8.07168 9.97831 7.33668 8.88664 6.84834 7.77914C6.74501 7.54497 6.80584 7.27081 6.98668 7.08997L7.66918 6.40831C8.22834 5.84914 8.22834 5.05831 7.74001 4.56997L6.76168 3.59164C6.11084 2.94081 5.05584 2.94081 4.40501 3.59164L3.86168 4.13497C3.24418 4.75247 2.98668 5.64331 3.15334 6.52664C3.56501 8.70414 4.83001 11.0883 6.87084 13.1291C8.91168 15.17 11.2958 16.435 13.4733 16.8466C14.3567 17.0133 15.2475 16.7558 15.865 16.1383L16.4075 15.5958C17.0583 14.945 17.0583 13.89 16.4075 13.2391L15.43 12.2616C14.9417 11.7733 14.15 11.7733 13.6625 12.2616L12.91 13.015C12.7292 13.1958 12.455 13.2566 12.2208 13.1533C11.1133 12.6641 10.0217 11.9283 9.04668 10.9533Z" stroke="#CED4DA" stroke-width="1.5" stroke-linecap="round" stroke-linejoin="round"/>
</svg>
