<svg width="21" height="17" viewBox="0 0 21 17" fill="none" xmlns="http://www.w3.org/2000/svg">
<path d="M20.1126 2.1838C19.3884 2.49623 18.6002 2.72108 17.7884 2.80866C18.6312 2.30791 19.2624 1.51682 19.5635 0.583804C18.7726 1.05431 17.9061 1.38424 17.0026 1.55895C16.6249 1.15523 16.1682 0.833603 15.6608 0.614118C15.1534 0.394633 14.6063 0.281992 14.0535 0.283213C11.8168 0.283213 10.018 2.09623 10.018 4.32108C10.018 4.63351 10.0558 4.94593 10.1174 5.24652C6.76826 5.07138 3.78128 3.47138 1.79548 1.02167C1.43365 1.6397 1.24404 2.34339 1.24637 3.05954C1.24637 4.46072 1.9588 5.69623 3.04519 6.42285C2.40496 6.39764 1.77973 6.22167 1.22034 5.90925V5.95895C1.22034 7.92108 2.60732 9.54711 4.45584 9.92108C4.10876 10.0112 3.75171 10.0574 3.39311 10.0584C3.13039 10.0584 2.88187 10.0323 2.63098 9.99682C3.14223 11.5968 4.63098 12.7589 6.40376 12.7968C5.01678 13.8832 3.27951 14.5223 1.39312 14.5223C1.05465 14.5223 0.742229 14.5104 0.417969 14.4726C2.20732 15.6205 4.33039 16.2832 6.61678 16.2832C14.0393 16.2832 18.1008 10.1341 18.1008 4.79682C18.1008 4.62167 18.1008 4.44652 18.089 4.27138C18.8748 3.69623 19.5635 2.9838 20.1126 2.1838Z" fill="white"/>
</svg>
